<?xml version="1.0" encoding="utf-8"?>
<?xml-stylesheet type="text/xsl" href="rss1.xsl"?>
<rss version="2.0" xmlns:atom="http://www.w3.org/2005/Atom" xmlns:content="http://purl.org/rss/1.0/modules/content/" xmlns:dc="http://purl.org/dc/elements/1.1/" xmlns:media="http://search.yahoo.com/mrss/">
<channel>
 <title>Getty</title>
 <link>http://www.gettyimg.com/</link>
 <atom:link href="http://www.gettyimg.com/" rel="self" type="application/rss+xml" />

 
                <item>
                <title><![CDATA[【Music Videos】Taylor Swift - Snow On The Beach (feat  Lana Del Rey) [Lyric Video] 2022  【whalehd】....11442500]]></title>
                <link><![CDATA[https://sharemania.us/threads/taylor-swift-snow-on-the-beach-feat-lana-del-rey-lyric-video-2022-%E3%80%90whalehd%E3%80%91-11442500.237494/]]></link>
                <description><![CDATA[<article>
<blockquote class="messageText SelectQuoteContainer ugc baseHtml">
<img src="https://www.imgbly.com/ib/9LvhE1yG03.jpg" class="bbCodeImage LbImage" alt="[​IMG]" data-url="https://www.imgbly.com/ib/9LvhE1yG03.jpg" style=""> <br>
<div class="ToggleTriggerAnchor bbCodeSpoilerContainer">
<button type="button" class="button bbCodeSpoilerButton ToggleTrigger Tooltip JsOnly" data-target="> .SpoilerTarget"><span>Spoiler: <span class="SpoilerTitle">MEDIAINFO</span></span></button>
<div class="SpoilerTarget bbCodeSpoilerText">General<br>
Unique ID : 177327307315818601146406557945928063273 (0x8567FF42B685D0F4AB1BB848024F9929)<br>
Complete name : D:\Backup\Downloads\Video\Taylor Swift - Snow On The Beach (feat Lana Del Rey) [Lyric Video] 2022 【whalehd】....11442500.mkv<br>
Format : Matroska<br>
Format version : Version 4<br>
File size : 216 MiB<br>
Duration : 4 min 19 s<br>
Overall bit rate : 6 961 kb/s<br>
Encoded date : UTC 2022-10-22 00:23:27<br>
Writing application : mkvmerge v11.0.0 ('Alive') 64bit<br>
Writing library : libebml v1.3.4 + libmatroska v1.4.5<br>
<br>
Video<br>
ID : 1<br>
Format : AVC<br>
Format/Info : Advanced Video Codec<br>
Format profile : High@L4<br>
Format settings : CABAC / 4 Ref Frames<br>
Format settings, CABAC : Yes<br>
Format settings, Reference frames : 4 frames<br>
Codec ID : V_MPEG4/ISO/AVC<br>
Duration : 4 min 19 s<br>
Bit rate : 6 690 kb/s<br>
Width : 1 920 pixels<br>
Height : 1 080 pixels<br>
Display aspect ratio : 16:9<br>
Frame rate mode : Constant<br>
Frame rate : 23.976 (24000/1001) FPS<br>
Color space : YUV<br>
Chroma subsampling : 4:2:0<br>
Bit depth : 8 bits<br>
Scan type : Progressive<br>
Bits/(Pixel*Frame) : 0.135<br>
Stream size : 207 MiB (96%)<br>
Language : English<br>
Default : Yes<br>
Forced : No<br>
Color range : Limited<br>
Color primaries : BT.709<br>
Transfer characteristics : BT.709<br>
Matrix coefficients : BT.709<br>
<br>
Audio<br>
ID : 2<br>
Format : AAC LC<br>
Format/Info : Advanced Audio Codec Low Complexity<br>
Codec ID : A_AAC-2<br>
Duration : 4 min 19 s<br>
Bit rate : 271 kb/s<br>
Channel(s) : 2 channels<br>
Channel layout : L R<br>
Sampling rate : 48.0 kHz<br>
Frame rate : 46.875 FPS (1024 SPF)<br>
Compression mode : Lossy<br>
Stream size : 8.39 MiB (4%)<br>
Default : Yes<br>
Forced : No</div>
</div><br>
<div class="bbCodeBlock bbCodeVfcHH HiddenContent">
<div class="attribution type">Hidden Content:</div>
<blockquote>You must reply before you can see the hidden data contained here.</blockquote>
</div>
<div class="messageTextEndMarker">&nbsp;</div>
</blockquote>
</article>]]></description>
                <author><![CDATA[unknown8YThu]]></author>
                </item>

                </channel></rss>